# Blender v2.81 (sub 16) OBJ File: 'helicopterVert.blend'
# www.blender.org
mtllib HelicopterVint.mtl
o Cube
v 0.413128 0.030582 0.408286
v 0.126365 0.030582 0.700000
v 0.700000 0.030582 0.089742
v 0.350000 0.060726 0.350000
v 0.126365 0.030582 0.700000
v 0.126365 0.030582 2.813103
v 1.857434 0.030582 0.097356
v -0.413128 0.030582 0.408286
v -0.126365 0.030582 0.700000
v 0.000000 0.030582 0.700000
v 0.000000 0.060726 0.350000
v -0.700000 0.030582 0.089742
v -0.350000 0.060726 0.350000
v -0.126365 0.030582 0.700000
v 0.000000 0.030582 0.700000
v -0.126365 0.030582 2.813103
v 0.000000 0.030582 2.813103
v -1.857434 0.030582 0.097356
v 0.413128 0.030582 -0.408286
v 0.126365 0.030582 -0.700000
v 0.700000 0.030582 0.000000
v 0.700000 0.030582 -0.089742
v 0.350000 0.060726 -0.350000
v 0.350000 0.060726 0.000000
v 0.126365 0.030582 -0.700000
v 0.126365 0.030582 -2.813103
v 1.857434 0.030582 -0.097356
v 1.857434 0.030582 0.000000
v -0.413128 0.030582 -0.408286
v -0.126365 0.030582 -0.700000
v 0.000000 0.030582 -0.700000
v 0.000000 0.060726 -0.350000
v -0.700000 0.030582 0.000000
v -0.700000 0.030582 -0.089742
v 0.000000 0.108690 0.000000
v -0.350000 0.060726 -0.350000
v -0.350000 0.060726 0.000000
v -0.126365 0.030582 -0.700000
v 0.000000 0.030582 -0.700000
v -0.126365 0.030582 -2.813103
v 0.000000 0.030582 -2.813103
v -1.857434 0.030582 -0.097356
v -1.857434 0.030582 0.000000
v 0.413128 -0.030582 0.408286
v 0.126365 -0.030582 0.700000
v 0.413128 0.000000 0.408286
v 0.700000 -0.030582 0.089742
v 0.700000 0.000000 0.171989
v 0.193575 0.000000 0.700000
v 0.350000 -0.060726 0.350000
v 0.126365 -0.030582 0.700000
v 0.193575 0.000000 0.700000
v 0.126365 -0.030582 2.813103
v 0.193575 0.000000 2.813103
v 1.857434 -0.030582 0.097356
v 1.857434 0.000000 0.171989
v -0.413128 -0.030582 0.408286
v -0.126365 -0.030582 0.700000
v 0.000000 -0.030582 0.700000
v 0.000000 -0.060726 0.350000
v 0.000000 0.000000 0.700000
v -0.413128 0.000000 0.408286
v -0.700000 -0.030582 0.089742
v -0.700000 0.000000 0.171989
v -0.193575 0.000000 0.700000
v -0.350000 -0.060726 0.350000
v -0.126365 -0.030582 0.700000
v 0.000000 -0.030582 0.700000
v -0.193575 0.000000 0.700000
v 0.000000 0.000000 0.700000
v -0.126365 -0.030582 2.813103
v 0.000000 -0.030582 2.813103
v -0.193575 0.000000 2.813103
v 0.000000 0.000000 2.813103
v -1.857434 -0.030582 0.097356
v -1.857434 0.000000 0.171989
v 0.413128 -0.030582 -0.408286
v 0.126365 -0.030582 -0.700000
v 0.700000 0.000000 0.000000
v 0.700000 -0.030582 0.000000
v 0.413128 0.000000 -0.408286
v 0.700000 -0.030582 -0.089742
v 0.700000 0.000000 -0.171989
v 0.193575 0.000000 -0.700000
v 0.350000 -0.060726 -0.350000
v 0.350000 -0.060726 0.000000
v 0.126365 -0.030582 -0.700000
v 0.193575 0.000000 -0.700000
v 0.126365 -0.030582 -2.813103
v 0.193575 0.000000 -2.813103
v 1.857434 -0.030582 -0.097356
v 1.857434 0.000000 -0.171989
v 1.857434 -0.030582 0.000000
v 1.857434 0.000000 0.000000
v -0.413128 -0.030582 -0.408286
v -0.126365 -0.030582 -0.700000
v -0.700000 0.000000 0.000000
v 0.000000 -0.030582 -0.700000
v 0.000000 -0.060726 -0.350000
v 0.000000 0.000000 -0.700000
v -0.700000 -0.030582 0.000000
v -0.413128 0.000000 -0.408286
v -0.700000 -0.030582 -0.089742
v -0.700000 0.000000 -0.171989
v 0.000000 -0.108690 0.000000
v -0.193575 0.000000 -0.700000
v -0.350000 -0.060726 -0.350000
v -0.350000 -0.060726 0.000000
v -0.126365 -0.030582 -0.700000
v 0.000000 -0.030582 -0.700000
v -0.193575 0.000000 -0.700000
v 0.000000 0.000000 -0.700000
v -0.126365 -0.030582 -2.813103
v 0.000000 -0.030582 -2.813103
v -0.193575 0.000000 -2.813103
v 0.000000 0.000000 -2.813103
v -1.857434 -0.030582 -0.097356
v -1.857434 0.000000 -0.171989
v -1.857434 -0.030582 0.000000
v -1.857434 0.000000 0.000000
vt 0.687500 0.625000
vt 0.750000 0.687500
vt 0.687500 0.687500
vt 0.500000 0.687500
vt 0.625000 0.687500
vt 0.625000 0.750000
vt 0.500000 0.750000
vt 0.750000 0.750000
vt 0.687500 0.750000
vt 0.625000 0.812500
vt 0.500000 0.812500
vt 0.625000 0.625000
vt 0.625000 0.812500
vt 0.500000 0.812500
vt 0.750000 0.750000
vt 0.687500 0.750000
vt 0.500000 0.812500
vt 0.625000 0.812500
vt 0.625000 0.875000
vt 0.500000 0.875000
vt 0.750000 0.750000
vt 0.687500 0.750000
vt 0.500000 0.625000
vt 0.625000 0.625000
vt 0.625000 0.687500
vt 0.500000 0.687500
vt 0.750000 0.625000
vt 0.687500 0.625000
vt 0.687500 0.687500
vt 0.500000 0.687500
vt 0.500000 0.750000
vt 0.625000 0.750000
vt 0.625000 0.687500
vt 0.687500 0.750000
vt 0.500000 0.812500
vt 0.625000 0.812500
vt 0.625000 0.625000
vt 0.000000 0.000000
vt 0.000000 0.000000
vt 0.000000 0.000000
vt 0.000000 0.000000
vt 0.500000 0.812500
vt 0.625000 0.812500
vt 0.687500 0.750000
vt 0.500000 0.812500
vt 0.625000 0.812500
vt 0.000000 0.000000
vt 0.000000 0.000000
vt 0.687500 0.750000
vt 0.500000 0.625000
vt 0.500000 0.687500
vt 0.625000 0.687500
vt 0.625000 0.625000
vt 0.000000 0.000000
vt 0.000000 0.000000
vt 0.000000 0.000000
vt 0.000000 0.000000
vt 0.687500 0.687500
vt 0.750000 0.687500
vt 0.500000 0.687500
vt 0.500000 0.750000
vt 0.625000 0.750000
vt 0.625000 0.687500
vt 0.687500 0.750000
vt 0.750000 0.750000
vt 0.500000 0.812500
vt 0.625000 0.812500
vt 0.500000 0.812500
vt 0.625000 0.812500
vt 0.687500 0.750000
vt 0.750000 0.750000
vt 0.500000 0.812500
vt 0.500000 0.875000
vt 0.625000 0.875000
vt 0.625000 0.812500
vt 0.687500 0.750000
vt 0.750000 0.750000
vt 0.500000 0.687500
vt 0.625000 0.687500
vt 0.000000 0.000000
vt 0.000000 0.000000
vt 0.000000 0.000000
vt 0.000000 0.000000
vt 0.687500 0.687500
vt 0.500000 0.687500
vt 0.625000 0.687500
vt 0.625000 0.750000
vt 0.500000 0.750000
vt 0.687500 0.750000
vt 0.625000 0.812500
vt 0.500000 0.812500
vt 0.000000 0.000000
vt 0.000000 0.000000
vt 0.000000 0.000000
vt 0.000000 0.000000
vt 0.625000 0.812500
vt 0.500000 0.812500
vt 0.687500 0.750000
vt 0.500000 0.812500
vt 0.625000 0.812500
vt 0.000000 0.000000
vt 0.000000 0.000000
vt 0.687500 0.750000
vt 0.625000 0.687500
vt 0.500000 0.687500
vt 0.687500 0.625000
vt 0.687500 0.687500
vt 0.750000 0.687500
vt 0.625000 0.750000
vt 0.625000 0.687500
vt 0.000000 0.000000
vt 0.000000 0.000000
vt 0.687500 0.750000
vt 0.750000 0.750000
vt 0.625000 0.812500
vt 0.625000 0.625000
vt 0.000000 0.000000
vt 0.625000 0.812500
vt 0.687500 0.750000
vt 0.750000 0.750000
vt 0.625000 0.875000
vt 0.625000 0.812500
vt 0.687500 0.750000
vt 0.750000 0.750000
vt 0.625000 0.687500
vt 0.625000 0.625000
vt 0.000000 0.000000
vt 0.000000 0.000000
vt 0.750000 0.625000
vt 0.687500 0.625000
vt 0.687500 0.687500
vt 0.625000 0.687500
vt 0.625000 0.750000
vt 0.000000 0.000000
vt 0.000000 0.000000
vt 0.687500 0.750000
vt 0.625000 0.812500
vt 0.625000 0.625000
vt 0.000000 0.000000
vt 0.000000 0.000000
vt 0.000000 0.000000
vt 0.625000 0.812500
vt 0.687500 0.750000
vt 0.625000 0.812500
vt 0.000000 0.000000
vt 0.687500 0.750000
vt 0.625000 0.625000
vt 0.625000 0.687500
vt 0.000000 0.000000
vt 0.000000 0.000000
vt 0.000000 0.000000
vt 0.000000 0.000000
vt 0.750000 0.687500
vt 0.687500 0.687500
vt 0.625000 0.687500
vt 0.625000 0.750000
vt 0.000000 0.000000
vt 0.000000 0.000000
vt 0.750000 0.750000
vt 0.687500 0.750000
vt 0.625000 0.812500
vt 0.000000 0.000000
vt 0.625000 0.812500
vt 0.750000 0.750000
vt 0.687500 0.750000
vt 0.625000 0.812500
vt 0.625000 0.875000
vt 0.750000 0.750000
vt 0.687500 0.750000
vt 0.625000 0.687500
vt 0.000000 0.000000
vt 0.000000 0.000000
vt 0.000000 0.000000
vt 0.000000 0.000000
vt 0.687500 0.687500
vt 0.625000 0.750000
vt 0.625000 0.687500
vt 0.000000 0.000000
vt 0.000000 0.000000
vt 0.687500 0.750000
vt 0.625000 0.812500
vt 0.000000 0.000000
vt 0.000000 0.000000
vt 0.000000 0.000000
vt 0.625000 0.812500
vt 0.687500 0.750000
vt 0.625000 0.812500
vt 0.000000 0.000000
vt 0.687500 0.750000
vt 0.625000 0.687500
vt 0.000000 0.000000
vt 0.000000 0.000000
vn 0.0000 1.0000 0.0000
vn 0.4998 0.6950 0.5169
vn 0.2460 0.9436 0.2216
vn 0.0000 0.9963 0.0858
vn 0.5812 0.6386 0.5044
vn 0.0858 0.9963 0.0000
vn 0.0000 0.0000 1.0000
vn 0.4142 0.9102 0.0000
vn 1.0000 -0.0000 0.0000
vn -0.0012 0.9317 0.3632
vn 0.2362 0.9436 0.2322
vn 0.1345 0.9817 0.1345
vn -0.4998 0.6950 0.5169
vn -0.2460 0.9436 0.2216
vn -0.5812 0.6386 0.5044
vn -0.0858 0.9963 0.0000
vn -0.4142 0.9102 0.0000
vn -1.0000 -0.0000 0.0000
vn 0.0012 0.9317 0.3632
vn -0.2362 0.9436 0.2322
vn -0.1345 0.9817 0.1345
vn 0.4998 0.6950 -0.5169
vn 0.2460 0.9436 -0.2216
vn 0.0000 0.9963 -0.0858
vn 0.5812 0.6386 -0.5044
vn 0.0000 0.0000 -1.0000
vn -0.0012 0.9317 -0.3632
vn 0.2362 0.9436 -0.2322
vn 0.1345 0.9817 -0.1345
vn -0.4998 0.6950 -0.5169
vn -0.2460 0.9436 -0.2216
vn -0.5812 0.6386 -0.5044
vn 0.0012 0.9317 -0.3632
vn -0.2362 0.9436 -0.2322
vn -0.1345 0.9817 -0.1345
vn 0.0000 -1.0000 0.0000
vn 0.4998 -0.6950 0.5169
vn 0.2460 -0.9436 0.2216
vn 0.0000 -0.9963 0.0858
vn 0.5812 -0.6386 0.5044
vn 0.0858 -0.9963 0.0000
vn 0.4142 -0.9102 0.0000
vn -0.0012 -0.9317 0.3632
vn 0.2362 -0.9436 0.2322
vn 0.1345 -0.9817 0.1345
vn -0.4998 -0.6950 0.5169
vn -0.2460 -0.9436 0.2216
vn -0.5812 -0.6386 0.5044
vn -0.0858 -0.9963 0.0000
vn -0.4142 -0.9102 0.0000
vn 0.0012 -0.9317 0.3632
vn -0.2362 -0.9436 0.2322
vn -0.1345 -0.9817 0.1345
vn 0.4998 -0.6950 -0.5169
vn 0.2460 -0.9436 -0.2216
vn 0.0000 -0.9963 -0.0858
vn 0.5812 -0.6386 -0.5044
vn -0.0012 -0.9317 -0.3632
vn 0.2362 -0.9436 -0.2322
vn 0.1345 -0.9817 -0.1345
vn -0.4998 -0.6950 -0.5169
vn -0.2460 -0.9436 -0.2216
vn -0.5812 -0.6386 -0.5044
vn 0.0012 -0.9317 -0.3632
vn -0.2362 -0.9436 -0.2322
vn -0.1345 -0.9817 -0.1345
usemtl Material
s off
f 24/1/1 11/2/1 4/3/1
f 48/4/2 3/5/2 1/6/2 46/7/2
f 3/5/3 4/3/3 1/6/3
f 4/3/4 11/2/4 10/8/4 2/9/4
f 46/7/5 1/6/5 2/10/5 49/11/5
f 21/12/6 24/1/6 4/3/6 3/5/6
f 49/11/7 2/10/7 5/13/7 52/14/7
f 2/9/7 10/8/7 15/15/7 5/16/7
f 54/17/7 6/18/7 17/19/7 74/20/7
f 5/16/1 15/15/1 17/21/1 6/22/1
f 52/14/8 5/13/8 6/18/8 54/17/8
f 94/23/9 28/24/9 7/25/9 56/26/9
f 3/5/10 48/4/10 56/26/10 7/25/10
f 21/12/1 3/5/1 7/25/1 28/24/1
f 1/6/11 4/3/11 2/9/11
f 11/2/12 24/1/12 35/27/12
f 37/28/1 13/29/1 11/2/1
f 64/30/13 62/31/13 8/32/13 12/33/13
f 12/33/14 8/32/14 13/29/14
f 13/29/4 9/34/4 10/8/4 11/2/4
f 62/31/15 65/35/15 9/36/15 8/32/15
f 33/37/16 12/33/16 13/29/16 37/28/16
f 10/38/7 15/39/7 70/40/7 61/41/7
f 65/35/7 69/42/7 14/43/7 9/36/7
f 9/34/7 14/44/7 15/15/7 10/8/7
f 73/45/7 74/20/7 17/19/7 16/46/7
f 15/39/9 17/47/9 74/48/9 70/40/9
f 14/44/1 16/49/1 17/21/1 15/15/1
f 69/42/17 73/45/17 16/46/17 14/43/17
f 120/50/18 76/51/18 18/52/18 43/53/18
f 12/33/19 18/52/19 76/51/19 64/30/19
f 33/37/1 43/53/1 18/52/1 12/33/1
f 8/32/20 9/34/20 13/29/20
f 11/2/21 35/27/21 37/28/21
f 79/54/7 94/55/7 28/56/7 21/57/7
f 24/1/1 23/58/1 32/59/1
f 83/60/22 81/61/22 19/62/22 22/63/22
f 22/63/23 19/62/23 23/58/23
f 23/58/24 20/64/24 31/65/24 32/59/24
f 81/61/25 84/66/25 20/67/25 19/62/25
f 21/12/6 22/63/6 23/58/6 24/1/6
f 84/66/7 88/68/7 25/69/7 20/67/7
f 20/64/7 25/70/7 39/71/7 31/65/7
f 90/72/26 116/73/26 41/74/26 26/75/26
f 25/70/1 26/76/1 41/77/1 39/71/1
f 88/68/8 90/72/8 26/75/8 25/69/8
f 94/23/9 92/78/9 27/79/9 28/24/9
f 22/63/27 27/79/27 92/78/27 83/60/27
f 21/12/1 28/24/1 27/79/1 22/63/1
f 19/62/28 20/64/28 23/58/28
f 32/59/29 35/27/29 24/1/29
f 97/80/7 33/81/7 43/82/7 120/83/7
f 37/28/1 32/59/1 36/84/1
f 104/85/30 34/86/30 29/87/30 102/88/30
f 34/86/31 36/84/31 29/87/31
f 36/84/24 32/59/24 31/65/24 30/89/24
f 102/88/32 29/87/32 30/90/32 106/91/32
f 33/37/16 37/28/16 36/84/16 34/86/16
f 31/92/7 100/93/7 112/94/7 39/95/7
f 106/91/7 30/90/7 38/96/7 111/97/7
f 30/89/7 31/65/7 39/71/7 38/98/7
f 115/99/26 40/100/26 41/74/26 116/73/26
f 39/95/9 112/94/9 116/101/9 41/102/9
f 38/98/1 39/71/1 41/77/1 40/103/1
f 111/97/17 38/96/17 40/100/17 115/99/17
f 120/50/18 43/53/18 42/104/18 118/105/18
f 34/86/33 104/85/33 118/105/33 42/104/33
f 33/37/1 34/86/1 42/104/1 43/53/1
f 29/87/34 36/84/34 30/89/34
f 32/59/35 37/28/35 35/27/35
f 86/106/36 50/107/36 60/108/36
f 48/4/37 46/7/37 44/109/37 47/110/37
f 47/110/38 44/109/38 50/107/38
f 61/41/7 70/40/7 52/111/7 49/112/7
f 50/107/39 45/113/39 59/114/39 60/108/39
f 46/7/40 49/11/40 45/115/40 44/109/40
f 80/116/41 47/110/41 50/107/41 86/106/41
f 70/40/1 74/48/1 54/117/1 52/111/1
f 49/11/7 52/14/7 51/118/7 45/115/7
f 45/113/7 51/119/7 68/120/7 59/114/7
f 54/17/7 74/20/7 72/121/7 53/122/7
f 51/119/36 53/123/36 72/124/36 68/120/36
f 52/14/42 54/17/42 53/122/42 51/118/42
f 94/23/9 56/26/9 55/125/9 93/126/9
f 47/110/43 55/125/43 56/26/43 48/4/43
f 80/116/36 93/126/36 55/125/36 47/110/36
f 48/127/1 56/128/1 94/55/1 79/54/1
f 44/109/44 45/113/44 50/107/44
f 60/108/45 105/129/45 86/106/45
f 108/130/36 60/108/36 66/131/36
f 64/30/46 63/132/46 57/133/46 62/31/46
f 63/132/47 66/131/47 57/133/47
f 61/41/7 65/134/7 69/135/7 70/40/7
f 66/131/39 60/108/39 59/114/39 58/136/39
f 62/31/48 57/133/48 58/137/48 65/35/48
f 101/138/49 108/130/49 66/131/49 63/132/49
f 70/40/1 69/135/1 73/139/1 74/48/1
f 59/140/7 61/41/7 70/40/7 68/141/7
f 65/35/7 58/137/7 67/142/7 69/42/7
f 58/136/7 59/114/7 68/120/7 67/143/7
f 73/45/7 71/144/7 72/121/7 74/20/7
f 68/141/9 70/40/9 74/48/9 72/145/9
f 67/143/36 68/120/36 72/124/36 71/146/36
f 69/42/50 67/142/50 71/144/50 73/45/50
f 120/50/18 119/147/18 75/148/18 76/51/18
f 63/132/51 64/30/51 76/51/51 75/148/51
f 101/138/36 63/132/36 75/148/36 119/147/36
f 64/149/1 97/80/1 120/83/1 76/150/1
f 57/133/52 66/131/52 58/136/52
f 60/108/53 108/130/53 105/129/53
f 79/54/7 80/151/7 93/152/7 94/55/7
f 86/106/36 99/153/36 85/154/36
f 83/60/54 82/155/54 77/156/54 81/61/54
f 82/155/55 85/154/55 77/156/55
f 100/93/7 84/157/7 88/158/7 112/94/7
f 85/154/56 99/153/56 98/159/56 78/160/56
f 81/61/57 77/156/57 78/161/57 84/66/57
f 80/116/41 86/106/41 85/154/41 82/155/41
f 112/94/1 88/158/1 90/162/1 116/101/1
f 84/66/7 78/161/7 87/163/7 88/68/7
f 78/160/7 98/159/7 110/164/7 87/165/7
f 90/72/26 89/166/26 114/167/26 116/73/26
f 87/165/36 110/164/36 114/168/36 89/169/36
f 88/68/42 87/163/42 89/166/42 90/72/42
f 94/23/9 93/126/9 91/170/9 92/78/9
f 82/155/58 83/60/58 92/78/58 91/170/58
f 80/116/36 82/155/36 91/170/36 93/126/36
f 83/171/1 79/54/1 94/55/1 92/172/1
f 77/156/59 85/154/59 78/160/59
f 99/153/60 86/106/60 105/129/60
f 97/80/7 120/83/7 119/173/7 101/174/7
f 108/130/36 107/175/36 99/153/36
f 104/85/61 102/88/61 95/176/61 103/177/61
f 103/177/62 95/176/62 107/175/62
f 100/93/7 112/94/7 111/178/7 106/179/7
f 107/175/56 96/180/56 98/159/56 99/153/56
f 102/88/63 106/91/63 96/181/63 95/176/63
f 101/138/49 103/177/49 107/175/49 108/130/49
f 112/94/1 116/101/1 115/182/1 111/178/1
f 98/183/7 110/184/7 112/94/7 100/93/7
f 106/91/7 111/97/7 109/185/7 96/181/7
f 96/180/7 109/186/7 110/164/7 98/159/7
f 115/99/26 116/73/26 114/167/26 113/187/26
f 110/184/9 114/188/9 116/101/9 112/94/9
f 109/186/36 113/189/36 114/168/36 110/164/36
f 111/97/50 115/99/50 113/187/50 109/185/50
f 120/50/18 118/105/18 117/190/18 119/147/18
f 103/177/64 117/190/64 118/105/64 104/85/64
f 101/138/36 119/147/36 117/190/36 103/177/36
f 104/191/1 118/192/1 120/83/1 97/80/1
f 95/176/65 96/180/65 107/175/65
f 99/153/66 105/129/66 108/130/66
